<mxfile host="app.diagrams.net" modified="2023-02-22T03:41:03.325Z" agent="5.0 (Macintosh; Intel Mac OS X 10_15_7) AppleWebKit/537.36 (KHTML, like Gecko) Chrome/109.0.0.0 Safari/537.36" etag="nYw47LJQN9nHBmywhlft" version="20.8.21" type="github">
  <diagram name="第 1 页" id="tCZlSMYylaMU62W3JqLv">
    <mxGraphModel dx="1426" dy="849" grid="1" gridSize="10" guides="1" tooltips="1" connect="1" arrows="1" fold="1" page="1" pageScale="1" pageWidth="827" pageHeight="1169" math="0" shadow="0">
      <root>
        <mxCell id="0" />
        <mxCell id="1" parent="0" />
        <mxCell id="NtTWHD_4jIz9ZNbQmXAY-3" value="" style="edgeStyle=orthogonalEdgeStyle;rounded=0;orthogonalLoop=1;jettySize=auto;html=1;" edge="1" parent="1" source="NtTWHD_4jIz9ZNbQmXAY-1" target="NtTWHD_4jIz9ZNbQmXAY-2">
          <mxGeometry relative="1" as="geometry" />
        </mxCell>
        <mxCell id="NtTWHD_4jIz9ZNbQmXAY-1" value="&lt;font style=&quot;font-size: 16px;&quot;&gt;数据收集&lt;/font&gt;" style="rounded=0;whiteSpace=wrap;html=1;" vertex="1" parent="1">
          <mxGeometry x="294" y="200" width="196" height="60" as="geometry" />
        </mxCell>
        <mxCell id="NtTWHD_4jIz9ZNbQmXAY-5" value="" style="edgeStyle=orthogonalEdgeStyle;rounded=0;orthogonalLoop=1;jettySize=auto;html=1;" edge="1" parent="1" source="NtTWHD_4jIz9ZNbQmXAY-2" target="NtTWHD_4jIz9ZNbQmXAY-4">
          <mxGeometry relative="1" as="geometry" />
        </mxCell>
        <mxCell id="NtTWHD_4jIz9ZNbQmXAY-2" value="&lt;font style=&quot;font-size: 16px;&quot;&gt;数据预处理&lt;/font&gt;" style="rounded=0;whiteSpace=wrap;html=1;" vertex="1" parent="1">
          <mxGeometry x="294" y="300" width="196" height="60" as="geometry" />
        </mxCell>
        <mxCell id="NtTWHD_4jIz9ZNbQmXAY-7" value="" style="edgeStyle=orthogonalEdgeStyle;rounded=0;orthogonalLoop=1;jettySize=auto;html=1;" edge="1" parent="1" source="NtTWHD_4jIz9ZNbQmXAY-4" target="NtTWHD_4jIz9ZNbQmXAY-6">
          <mxGeometry relative="1" as="geometry" />
        </mxCell>
        <mxCell id="NtTWHD_4jIz9ZNbQmXAY-4" value="&lt;font style=&quot;font-size: 16px;&quot;&gt;特征提取&lt;/font&gt;" style="rounded=0;whiteSpace=wrap;html=1;" vertex="1" parent="1">
          <mxGeometry x="294" y="400" width="196" height="60" as="geometry" />
        </mxCell>
        <mxCell id="NtTWHD_4jIz9ZNbQmXAY-9" value="" style="edgeStyle=orthogonalEdgeStyle;rounded=0;orthogonalLoop=1;jettySize=auto;html=1;" edge="1" parent="1" source="NtTWHD_4jIz9ZNbQmXAY-6" target="NtTWHD_4jIz9ZNbQmXAY-8">
          <mxGeometry relative="1" as="geometry" />
        </mxCell>
        <mxCell id="NtTWHD_4jIz9ZNbQmXAY-6" value="&lt;font style=&quot;font-size: 16px;&quot;&gt;模型训练&lt;/font&gt;" style="rounded=0;whiteSpace=wrap;html=1;" vertex="1" parent="1">
          <mxGeometry x="294" y="500" width="196" height="60" as="geometry" />
        </mxCell>
        <mxCell id="NtTWHD_4jIz9ZNbQmXAY-11" value="" style="edgeStyle=orthogonalEdgeStyle;rounded=0;orthogonalLoop=1;jettySize=auto;html=1;" edge="1" parent="1" source="NtTWHD_4jIz9ZNbQmXAY-8" target="NtTWHD_4jIz9ZNbQmXAY-10">
          <mxGeometry relative="1" as="geometry" />
        </mxCell>
        <mxCell id="NtTWHD_4jIz9ZNbQmXAY-8" value="&lt;font style=&quot;font-size: 16px;&quot;&gt;垃圾邮件过滤&lt;/font&gt;" style="rounded=0;whiteSpace=wrap;html=1;" vertex="1" parent="1">
          <mxGeometry x="294" y="600" width="196" height="60" as="geometry" />
        </mxCell>
        <mxCell id="NtTWHD_4jIz9ZNbQmXAY-10" value="&lt;font style=&quot;font-size: 16px;&quot;&gt;自学习更新&lt;/font&gt;" style="rounded=0;whiteSpace=wrap;html=1;" vertex="1" parent="1">
          <mxGeometry x="294" y="700" width="196" height="60" as="geometry" />
        </mxCell>
      </root>
    </mxGraphModel>
  </diagram>
</mxfile>
